<?xml version="1.0" standalone="no"?><!DOCTYPE svg PUBLIC "-//W3C//DTD SVG 1.1//EN" "http://www.w3.org/Graphics/SVG/1.1/DTD/svg11.dtd"><svg t="1739547539015" class="icon" viewBox="0 0 1024 1024" version="1.1" xmlns="http://www.w3.org/2000/svg" p-id="10843" xmlns:xlink="http://www.w3.org/1999/xlink" width="48" height="48"><path d="M853.984 428.226c-4.186-17.17 6.338-34.484 23.508-38.672 17.17-4.188 34.482 6.336 38.67 23.506C924.002 445.2 928 478.35 928 512c0 229.752-186.242 416-416 416-229.746 0-416-186.254-416-416S282.254 96 512 96c97.844 0 190.546 33.92 264.494 94.898 13.636 11.244 15.576 31.412 4.332 45.046-11.244 13.636-31.412 15.576-45.048 4.332C673.19 188.668 594.848 160 512 160c-194.4 0-352 157.6-352 352s157.6 352 352 352c194.41 0 352-157.594 352-352 0-28.53-3.386-56.592-10.016-83.774zM474.12 623.834l378.828-378.826c12.496-12.498 32.758-12.498 45.254 0 12.496 12.496 12.496 32.758 0 45.254L496.748 691.716c-12.498 12.498-32.76 12.498-45.256 0l-174.544-174.544c-12.498-12.498-12.498-32.76 0-45.256 12.496-12.496 32.758-12.496 45.254 0l151.92 151.92z" fill="#ffffff" p-id="10844"></path></svg>